<svg
  width="16"
  height="16"
  viewBox="0 0 16 16"
  fill="none"
  xmlns="http://www.w3.org/2000/svg"
>
  <path
    d="M4.125 14.9688H1.21875V5.625H4.125V14.9688ZM2.65625 4.375C1.75 4.375 1 3.59375 1 2.65625C1 1.75 1.75 1 2.65625 1C3.59375 1 4.34375 1.75 4.34375 2.65625C4.34375 3.59375 3.59375 4.375 2.65625 4.375ZM12.0938 14.9688V10.4375C12.0938 9.34375 12.0625 7.96875 10.5625 7.96875C9.0625 7.96875 8.84375 9.125 8.84375 10.3438V14.9688H5.9375V5.625H8.71875V6.90625H8.75C9.15625 6.1875 10.0938 5.40625 11.5 5.40625C14.4375 5.40625 15 7.34375 15 9.84375V14.9688H12.0938Z"
    fill="#182F43"
  />
</svg>
