<svg width="16" height="16" viewBox="0 0 16 16" fill="none" xmlns="http://www.w3.org/2000/svg">
<path d="M14.3718 5.22651C14.3718 5.38313 14.3718 5.50843 14.3718 5.66506C14.3718 10.0193 11.0841 15 5.0411 15C3.16243 15 1.44031 14.4675 0 13.5277C0.250489 13.559 0.500978 13.5904 0.782779 13.5904C2.31703 13.5904 3.72603 13.0578 4.85323 12.1807C3.41292 12.1494 2.19178 11.2096 1.78474 9.89398C2.00391 9.9253 2.19178 9.95663 2.41096 9.95663C2.69276 9.95663 3.00587 9.89398 3.25636 9.83133C1.75342 9.51807 0.626223 8.20241 0.626223 6.60482V6.57349C1.06458 6.8241 1.59687 6.9494 2.12916 6.98072C1.22114 6.38554 0.657534 5.38313 0.657534 4.25542C0.657534 3.62892 0.81409 3.06506 1.09589 2.59518C2.72407 4.56867 5.16634 5.88434 7.89041 6.04096C7.82779 5.79036 7.79648 5.53976 7.79648 5.28916C7.79648 3.47229 9.2681 2 11.0841 2C12.0235 2 12.8689 2.3759 13.4951 3.03374C14.2153 2.87711 14.9354 2.59518 15.5616 2.21928C15.3112 3.00241 14.8102 3.62892 14.1213 4.03614C14.7789 3.97349 15.4364 3.78554 16 3.53494C15.5616 4.19277 14.998 4.75663 14.3718 5.22651Z" fill="#182F43"/>
</svg>
